HIERARCHY
ROOT hip_center
{
  OFFSET -0.003768 0.000459 0.000372
  CHANNELS 3 Xposition Yposition Zposition
  JOINT right_hip
  {
    OFFSET -0.006308 0.011686 -0.105556
    CHANNELS 3 Xposition Yposition Zposition
    JOINT right_knee
    {
      OFFSET 0.043082 0.358045 0.079572
      CHANNELS 3 Xposition Yposition Zposition
      JOINT right_ankle
      {
        OFFSET -0.030716 0.337469 0.057412
        CHANNELS 3 Xposition Yposition Zposition
        End Site
        {
          OFFSET -0.015358 0.168734 0.028706
        }
      }
    }
  }
  JOINT left_hip
  {
    OFFSET 0.006308 -0.011686 0.105558
    CHANNELS 3 Xposition Yposition Zposition
    JOINT left_knee
    {
      OFFSET 0.047599 0.324547 0.086700
      CHANNELS 3 Xposition Yposition Zposition
      JOINT left_ankle
      {
        OFFSET -0.025842 0.324247 0.013109
        CHANNELS 3 Xposition Yposition Zposition
        End Site
        {
          OFFSET -0.012921 0.162123 0.006555
        }
      }
    }
  }
  JOINT spine
  {
    OFFSET 0.079131 -0.199884 -0.022399
    CHANNELS 3 Xposition Yposition Zposition
    JOINT thorax
    {
      OFFSET 0.079131 -0.199883 -0.022399
      CHANNELS 3 Xposition Yposition Zposition
      JOINT neck
      {
        OFFSET 0.073719 -0.021988 -0.002208
        CHANNELS 3 Xposition Yposition Zposition
        JOINT head
        {
          OFFSET 0.073454 -0.022974 -0.002321
          CHANNELS 3 Xposition Yposition Zposition
          End Site
          {
            OFFSET 0.036727 -0.011487 -0.001160
          }
        }
      }
      JOINT left_shoulder
      {
        OFFSET -0.007671 0.011528 0.118870
        CHANNELS 3 Xposition Yposition Zposition
        JOINT left_elbow
        {
          OFFSET -0.010763 0.214630 0.079801
          CHANNELS 3 Xposition Yposition Zposition
          JOINT left_wrist
          {
            OFFSET 0.083916 0.182705 0.011188
            CHANNELS 3 Xposition Yposition Zposition
            End Site
            {
              OFFSET 0.041958 0.091353 0.005594
            }
          }
        }
      }
      JOINT right_shoulder
      {
        OFFSET 0.006701 -0.009040 -0.119141
        CHANNELS 3 Xposition Yposition Zposition
        JOINT right_elbow
        {
          OFFSET -0.001142 0.212919 -0.045474
          CHANNELS 3 Xposition Yposition Zposition
          JOINT right_wrist
          {
            OFFSET 0.067560 0.190072 -0.001129
            CHANNELS 3 Xposition Yposition Zposition
            End Site
            {
              OFFSET 0.033780 0.095036 -0.000565
            }
          }
        }
      }
    }
  }
}
MOTION
Frames: 18
Frame Time: 0.033358
-0.003768 0.000459 0.000372 -0.010076 0.012145 -0.105184 0.033006 0.370190 -0.025612 0.002289 0.707659 0.031800 0.002540 -0.011228 0.105930 0.050139 0.313319 0.192630 0.024297 0.637566 0.205739 0.075363 -0.199425 -0.022027 0.154493 -0.399309 -0.044426 0.228212 -0.421296 -0.046634 0.301666 -0.444270 -0.048955 0.146822 -0.387781 0.074444 0.136059 -0.173151 0.154245 0.219975 0.009554 0.165433 0.161194 -0.408349 -0.163567 0.160052 -0.195430 -0.209041 0.227611 -0.005358 -0.210170
-0.003711 0.000470 0.000399 -0.010521 0.011963 -0.105148 0.032832 0.370013 -0.025744 0.002209 0.707537 0.031388 0.003099 -0.011024 0.105947 0.049650 0.314089 0.191082 0.023820 0.638352 0.203799 0.075320 -0.199444 -0.022092 0.154350 -0.399357 -0.044582 0.228048 -0.421412 -0.046823 0.301496 -0.444401 -0.049171 0.147701 -0.387499 0.074317 0.136964 -0.172818 0.153983 0.220911 0.009898 0.164753 0.160077 -0.408866 -0.163737 0.159319 -0.196075 -0.209809 0.227249 -0.006166 -0.213439
-0.003612 0.000486 0.000431 -0.011341 0.011614 -0.105091 0.032491 0.369679 -0.026015 0.002051 0.707306 0.030606 0.004121 -0.010642 0.105955 0.048764 0.315438 0.188367 0.023048 0.639725 0.200708 0.075220 -0.199488 -0.022215 0.154051 -0.399462 -0.044861 0.227717 -0.421614 -0.047177 0.301159 -0.444616 -0.049591 0.149235 -0.387002 0.074064 0.138560 -0.172234 0.153507 0.222534 0.010509 0.163589 0.158004 -0.409796 -0.164019 0.157849 -0.197302 -0.211452 0.226439 -0.007805 -0.220352
-0.003490 0.000505 0.000464 -0.012446 0.011151 -0.105011 0.032019 0.369237 -0.026390 0.001838 0.706994 0.029593 0.005478 -0.010140 0.105939 0.047705 0.317106 0.184933 0.022148 0.641410 0.197139 0.075075 -0.199551 -0.022389 0.153639 -0.399606 -0.045244 0.227266 -0.421875 -0.047669 0.300702 -0.444885 -0.050180 0.151267 -0.386337 0.073668 0.140699 -0.171480 0.152880 0.224673 0.011311 0.162048 0.155215 -0.411041 -0.164357 0.155693 -0.199038 -0.213935 0.225002 -0.010327 -0.230592
-0.003362 0.000513 0.000507 -0.013741 0.010604 -0.104892 0.031440 0.368722 -0.026826 0.001563 0.706619 0.028474 0.007039 -0.009576 0.105905 0.046651 0.318872 0.181178 0.021183 0.643180 0.193478 0.074876 -0.199645 -0.022570 0.153110 -0.399804 -0.045649 0.226700 -0.422188 -0.048160 0.300130 -0.445209 -0.050745 0.153499 -0.385590 0.073177 0.143073 -0.170676 0.152253 0.227013 0.012178 0.160449 0.151962 -0.412470 -0.164642 0.152858 -0.201214 -0.217307 0.222808 -0.013880 -0.243876
-0.003227 0.000511 0.000559 -0.015192 0.009981 -0.104730 0.030737 0.368148 -0.027326 0.001194 0.706197 0.027212 0.008772 -0.008958 0.105845 0.045532 0.320728 0.177042 0.020142 0.645027 0.189730 0.074608 -0.199776 -0.022766 0.152435 -0.400065 -0.046095 0.225987 -0.422567 -0.048640 0.299409 -0.445614 -0.051249 0.155751 -0.384832 0.072559 0.145452 -0.169918 0.151654 0.229324 0.013006 0.158915 0.148360 -0.414014 -0.164880 0.149349 -0.203822 -0.221641 0.219878 -0.018633 -0.259376
-0.003095 0.000496 0.000613 -0.016675 0.009318 -0.104536 0.029989 0.367542 -0.027844 0.000790 0.705750 0.025896 0.010532 -0.008325 0.105757 0.044465 0.322529 0.172817 0.019147 0.646811 0.186093 0.074312 -0.199927 -0.022962 0.151706 -0.400354 -0.046544 0.225217 -0.422995 -0.049069 0.298624 -0.446090 -0.051649 0.157839 -0.384120 0.071865 0.147628 -0.169268 0.151139 0.231426 0.013717 0.157658 0.144805 -0.415560 -0.165044 0.145516 -0.206841 -0.227007 0.216658 -0.024740 -0.276718
-0.002972 0.000468 0.000665 -0.018119 0.008643 -0.104321 0.029251 0.366932 -0.028368 0.000395 0.705296 0.024564 0.012234 -0.007707 0.105645 0.043546 0.324200 0.168655 0.018250 0.648454 0.182626 0.074021 -0.200082 -0.023184 0.150997 -0.400637 -0.047044 0.224452 -0.423467 -0.049494 0.297838 -0.446638 -0.051985 0.159701 -0.383496 0.071075 0.149478 -0.168787 0.150735 0.233266 0.014222 0.156713 0.141556 -0.417061 -0.165206 0.141641 -0.210366 -0.233622 0.213642 -0.032612 -0.296172
-0.002864 0.000424 0.000722 -0.019484 0.007982 -0.104088 0.028558 0.366340 -0.028882 0.000039 0.704856 0.023256 0.013823 -0.007137 0.105523 0.042838 0.325691 0.164659 0.017472 0.649906 0.179383 0.073744 -0.200236 -0.023445 0.150331 -0.400901 -0.047625 0.223708 -0.423985 -0.050008 0.297065 -0.447259 -0.052415 0.161336 -0.382989 0.070187 0.151038 -0.168483 0.150382 0.234860 0.014522 0.155963 0.138684 -0.418492 -0.165422 0.137847 -0.214563 -0.241681 0.211158 -0.042725 -0.317776
-0.002778 0.000365 0.000788 -0.020758 0.007363 -0.103836 0.027926 0.365789 -0.029370 -0.000282 0.704456 0.021945 0.015273 -0.006638 0.105401 0.042364 0.326993 0.160809 0.016791 0.651154 0.176331 0.073451 -0.200395 -0.023742 0.149656 -0.401161 -0.048291 0.222925 -0.424582 -0.050698 0.296259 -0.447931 -0.053095 0.162759 -0.382692 0.069220 0.152328 -0.168428 0.150042 0.236171 0.014574 0.155405 0.136148 -0.419982 -0.165698 0.133446 -0.220485 -0.252860 0.210081 -0.057762 -0.344191
-0.002712 0.000299 0.000865 -0.021923 0.006795 -0.103572 0.027368 0.365284 -0.029813 -0.000558 0.704094 0.020707 0.016570 -0.006204 0.105291 0.042164 0.328097 0.157259 0.016186 0.652189 0.173537 0.073140 -0.200554 -0.024071 0.148965 -0.401413 -0.049031 0.222115 -0.425193 -0.051538 0.295436 -0.448575 -0.053994 0.164042 -0.382507 0.068174 0.153522 -0.168498 0.149659 0.237331 0.014523 0.154907 0.133807 -0.421504 -0.166025 0.128225 -0.228328 -0.266302 0.210943 -0.079594 -0.374602
-0.002662 0.000236 0.000947 -0.022961 0.006284 -0.103311 0.026891 0.364831 -0.030212 -0.000790 0.703758 0.019658 0.017705 -0.005822 0.105194 0.042230 0.329017 0.154124 0.015627 0.653024 0.171077 0.072814 -0.200705 -0.024413 0.148261 -0.401653 -0.049803 0.221297 -0.425769 -0.052435 0.294622 -0.449129 -0.054969 0.165166 -0.382405 0.067096 0.154650 -0.168658 0.149263 0.238386 0.014403 0.154279 0.131651 -0.423002 -0.166377 0.121974 -0.238445 -0.281480 0.214034 -0.112182 -0.409056
-0.002627 0.000171 0.001039 -0.023879 0.005839 -0.103050 0.026522 0.364435 -0.030574 -0.000949 0.703478 0.018619 0.018688 -0.005509 0.105117 0.042517 0.329767 0.151326 0.015167 0.653682 0.168830 0.072501 -0.200844 -0.024765 0.147598 -0.401866 -0.050606 0.220513 -0.426323 -0.053423 0.293840 -0.449662 -0.056092 0.166173 -0.382351 0.065995 0.155683 -0.168871 0.148861 0.239325 0.014230 0.153970 0.129721 -0.424406 -0.166767 0.115981 -0.250101 -0.296506 0.217210 -0.152799 -0.441345
-0.002607 0.000114 0.001119 -0.024696 0.005451 -0.102814 0.026227 0.364088 -0.030907 -0.001052 0.703227 0.017724 0.019539 -0.005235 0.105041 0.042891 0.330390 0.148902 0.014776 0.654217 0.166825 0.072193 -0.200969 -0.025109 0.146959 -0.402057 -0.051379 0.219761 -0.426827 -0.054407 0.293091 -0.450136 -0.057241 0.167011 -0.382345 0.064944 0.156664 -0.169096 0.148419 0.240227 0.014045 0.153411 0.128006 -0.425673 -0.167156 0.111108 -0.262173 -0.309935 0.220257 -0.203582 -0.469141
-0.002597 0.000064 0.001189 -0.025405 0.005110 -0.102604 0.025996 0.363784 -0.031225 -0.001111 0.703007 0.016924 0.020259 -0.004994 0.104971 0.043270 0.330917 0.146770 0.014457 0.654664 0.165026 0.071900 -0.201080 -0.025424 0.146363 -0.402230 -0.052083 0.219060 -0.427273 -0.055363 0.292390 -0.450556 -0.058412 0.167707 -0.382361 0.063984 0.157564 -0.169299 0.147959 0.241072 0.013875 0.152657 0.126481 -0.426769 -0.167511 0.107635 -0.273703 -0.321196 0.220234 -0.252835 -0.487266
-0.002597 0.000023 0.001245 -0.026021 0.004809 -0.102422 0.025822 0.363519 -0.031543 -0.001136 0.702808 0.016213 0.020869 -0.004776 0.104904 0.043603 0.331373 0.144904 0.014199 0.655053 0.163412 0.071625 -0.201179 -0.025704 0.145813 -0.402385 -0.052699 0.218420 -0.427649 -0.056274 0.291746 -0.450905 -0.059588 0.168292 -0.382380 0.063129 0.158397 -0.169463 0.147501 0.241886 0.013733 0.151660 0.125112 -0.427693 -0.167817 0.105609 -0.284094 -0.330305 0.217943 -0.295096 -0.497497
-0.002603 -0.000009 0.001288 -0.026536 0.004538 -0.102274 0.025708 0.363286 -0.031883 -0.001124 0.702628 0.015565 0.021366 -0.004569 0.104842 0.043875 0.331779 0.143270 0.014004 0.655405 0.161973 0.071398 -0.201260 -0.025901 0.145366 -0.402516 -0.053134 0.217902 -0.427936 -0.057010 0.291215 -0.451194 -0.060611 0.168781 -0.382329 0.062477 0.159155 -0.169479 0.147049 0.242652 0.013731 0.150320 0.123951 -0.428402 -0.167992 0.105419 -0.290833 -0.335727 0.215610 -0.316221 -0.502779
-0.002615 -0.000036 0.001313 -0.026935 0.004267 -0.102168 0.025651 0.363062 -0.032275 -0.001082 0.702427 0.015068 0.021735 -0.004350 0.104790 0.044093 0.332160 0.141860 0.013857 0.655741 0.160748 0.071264 -0.201333 -0.025865 0.145113 -0.402634 -0.053080 0.217617 -0.428092 -0.057320 0.290891 -0.451410 -0.061301 0.169158 -0.382114 0.062344 0.159808 -0.169179 0.146732 0.243358 0.014030 0.148288 0.123094 -0.428774 -0.167766 0.107392 -0.289106 -0.334049 0.219673 -0.291398 -0.501622
